<svg xmlns="http://www.w3.org/2000/svg" version="1.1" xmlns:xlink="http://www.w3.org/1999/xlink" xmlns:svgjs="http://svgjs.dev/svgjs" width="100%" height="100%" viewBox="0 0 1000 600"><rect width="1000" height="600" x="0" y="0" fill="#34d399"/><g><circle r="166.66666666666666" cx="222.22222391764322" cy="244.4444359673398" fill="#1e293b" transform="matrix(2.2499999313354513,0,0,2.2499999313354517,0,-249.99999847412175)"/><path d="M158.8356713201212 319.4444461453743L158.8356713201212 319.4444461453743Q144.60433096895375 319.4444461453743 132.99088884285428 313.4288502239415Q121.34959673563705 307.41325430250856 114.63775128626062 295.5770123274672Q107.9259058368842 283.7407703524258 107.9259058368842 266.0838823237757L107.9259058368842 266.0838823237757L107.9259058368842 261.0708857225817L127.56014252489408 261.0708857225817L127.56014252489408 269.7043798690826Q127.56014252489408 284.7433696726646 136.3885865392191 293.0705140268702Q145.2170305535441 301.39765838107576 158.8356713201212 301.39765838107576L158.8356713201212 301.39765838107576Q172.48216206781603 301.39765838107576 181.31060608214102 293.0705140268702Q190.13905009646604 284.7433696726646 190.13905009646604 269.7043798690826L190.13905009646604 269.7043798690826L190.13905009646604 183.09093859289703L209.77328678447594 183.09093859289703L209.77328678447594 266.0838823237757Q209.77328678447594 283.7407703524258 203.06144133509952 295.5770123274672Q196.3495958857231 307.41325430250856 184.81970370297685 313.4288502239415Q173.28981152023061 319.4444461453743 158.8356713201212 319.4444461453743ZM209.77328678447594 187.10133587385226L127.17024278924566 187.10133587385226L127.17024278924566 169.4444478452022L209.77328678447594 169.4444478452022L209.77328678447594 187.10133587385226ZM269.5393462631557 315.8239486000675L249.87725959402806 315.8239486000675L249.87725959402806 169.4444478452022L269.5393462631557 169.4444478452022L269.5393462631557 315.8239486000675ZM336.51855085133127 315.8239486000675L265.5289489822005 315.8239486000675L265.5289489822005 298.16706057141744L336.51855085133127 298.16706057141744L336.51855085133127 315.8239486000675ZM330.28015508095655 250.26509304889683L265.5289489822005 250.26509304889683L265.5289489822005 232.6082050202468L330.28015508095655 232.6082050202468L330.28015508095655 250.26509304889683ZM334.5133522108537 187.10133587385226L265.5289489822005 187.10133587385226L265.5289489822005 169.4444478452022L334.5133522108537 169.4444478452022L334.5133522108537 187.10133587385226Z " fill="#34d399" transform="matrix(2.2499999313354513,0,0,2.2499999313354517,0,-249.99999847412175)"/><path d="MNaN 244.44444783528658 " fill="#1e293b" transform="matrix(2.2499999313354513,0,0,2.2499999313354517,0,-249.99999847412175)"/></g></svg>